HIERARCHY
ROOT Hips
{
	OFFSET 0.000000 0.000000 0.000000
	CHANNELS 6 Xposition Yposition Zposition Zrotation Yrotation Xrotation 
	JOINT LHipJoint
	{
		OFFSET 0.000000 0.000000 0.000000
		CHANNELS 3 Zrotation Yrotation Xrotation
		JOINT LeftUpLeg
		{
			OFFSET 1.363060 -1.794630 0.839290
			CHANNELS 3 Zrotation Yrotation Xrotation
			JOINT LeftLeg
			{
				OFFSET 2.448110 -6.726130 0.000000
				CHANNELS 3 Zrotation Yrotation Xrotation
				JOINT LeftFoot
				{
					OFFSET 2.562200 -7.039590 0.000000
					CHANNELS 3 Zrotation Yrotation Xrotation
					JOINT LeftToeBase
					{
						OFFSET 0.157640 -0.433110 2.322550
						CHANNELS 3 Zrotation Yrotation Xrotation
						End Site
						{
							OFFSET 0.000000 0.000000 0.000000
						}
					}
				}
			}
		}
	}
	JOINT RHipJoint
	{
		OFFSET 0.000000 0.000000 0.000000
		CHANNELS 3 Zrotation Yrotation Xrotation
		JOINT RightUpLeg
		{
			OFFSET -1.305520 -1.794630 0.839290
			CHANNELS 3 Zrotation Yrotation Xrotation
			JOINT RightLeg
			{
				OFFSET -2.542530 -6.985550 0.000000
				CHANNELS 3 Zrotation Yrotation Xrotation
				JOINT RightFoot
				{
					OFFSET -2.568260 -7.056230 0.000000
					CHANNELS 3 Zrotation Yrotation Xrotation
					JOINT RightToeBase
					{
						OFFSET -0.164730 -0.452590 2.363150
						CHANNELS 3 Zrotation Yrotation Xrotation
						End Site
						{
							OFFSET 0.000000 0.000000 0.000000
						}
					}
				}
			}
		}
	}
	JOINT LowerBack
	{
		OFFSET 0.000000 0.000000 0.000000
		CHANNELS 3 Zrotation Yrotation Xrotation
		JOINT Spine
		{
			OFFSET 0.028270 2.035590 -0.193380
			CHANNELS 3 Zrotation Yrotation Xrotation
			JOINT Spine1
			{
				OFFSET 0.056720 2.048850 -0.042750
				CHANNELS 3 Zrotation Yrotation Xrotation
				JOINT Neck
				{
					OFFSET 0.000000 0.000000 0.000000
					CHANNELS 3 Zrotation Yrotation Xrotation
					JOINT Neck1
					{
						OFFSET -0.054170 1.746240 0.172020
						CHANNELS 3 Zrotation Yrotation Xrotation
						JOINT Head
						{
							OFFSET 0.104070 1.761360 -0.123970
							CHANNELS 3 Zrotation Yrotation Xrotation
							End Site
							{
								OFFSET 0.000000 0.000000 0.000000
							}
						}
					}
				}
				JOINT LeftShoulder
				{
					OFFSET 0.000000 0.000000 0.000000
					CHANNELS 3 Zrotation Yrotation Xrotation
					JOINT LeftArm
					{
						OFFSET 3.362410 1.200890 -0.311210
						CHANNELS 3 Zrotation Yrotation Xrotation
						JOINT LeftForeArm
						{
							OFFSET 4.983000 -0.000000 -0.000000
							CHANNELS 3 Zrotation Yrotation Xrotation
							JOINT LeftHand
							{
								OFFSET 3.483560 -0.000000 -0.000000
								CHANNELS 3 Zrotation Yrotation Xrotation
								JOINT LeftFingerBase
								{
									OFFSET 0.000000 0.000000 0.000000
									CHANNELS 3 Zrotation Yrotation Xrotation
									JOINT LeftHandIndex1
									{
										OFFSET 0.715260 -0.000000 -0.000000
										CHANNELS 3 Zrotation Yrotation Xrotation
										End Site
										{
											OFFSET 0.000000 0.000000 0.000000
										}
									}
								}
								JOINT LThumb
								{
									OFFSET 0.000000 0.000000 0.000000
									CHANNELS 3 Zrotation Yrotation Xrotation
									End Site
									{
										OFFSET 0.000000 0.000000 0.000000
									}
								}
							}
						}
					}
				}
				JOINT RightShoulder
				{
					OFFSET 0.000000 0.000000 0.000000
					CHANNELS 3 Zrotation Yrotation Xrotation
					JOINT RightArm
					{
						OFFSET -3.136600 1.374050 -0.404650
						CHANNELS 3 Zrotation Yrotation Xrotation
						JOINT RightForeArm
						{
							OFFSET -5.241900 -0.000000 -0.000000
							CHANNELS 3 Zrotation Yrotation Xrotation
							JOINT RightHand
							{
								OFFSET -3.444170 -0.000000 -0.000000
								CHANNELS 3 Zrotation Yrotation Xrotation
								JOINT RightFingerBase
								{
									OFFSET 0.000000 0.000000 0.000000
									CHANNELS 3 Zrotation Yrotation Xrotation
									JOINT RightHandIndex1
									{
										OFFSET -0.622530 -0.000000 -0.000000
										CHANNELS 3 Zrotation Yrotation Xrotation
										End Site
										{
											OFFSET 0.000000 0.000000 0.000000
										}
									}
								}
								JOINT RThumb
								{
									OFFSET 0.000000 0.000000 0.000000
									CHANNELS 3 Zrotation Yrotation Xrotation
									End Site
									{
										OFFSET 0.000000 0.000000 0.000000
									}
								}
							}
						}
					}
				}
			}
		}
	}
}
MOTION
Frames: 8
Frame Time: 0.008333
11.517208 18.680070 8.831736 0.861923 2.170978 -1.795497 9.530543 -1.235263 -0.935804 -26.737382 -9.887924 -9.461166 6.835874 12.942029 41.629947 -2.838083 -29.131756 -35.226188 0.010100 -0.649500 -1.785000 -16.277100 0.319018 -4.956937 41.939306 12.889748 6.257163 -7.020593 -10.735712 30.720885 -6.702501 -2.539312 -56.435621 -0.327800 -3.679600 10.176900 5.358433 1.730094 -7.429979 -4.981800 1.021049 17.333588 -2.600549 0.828036 -0.455472 -10.038303 -7.808487 -7.448031 15.537948 -11.539000 7.290404 3.084200 -5.577300 2.814700 3.606327 -8.671633 1.494091 -86.165827 -3.424050 26.916402 22.524909 -25.997793 -2.900823 0.381556 -0.092576 -7.226312 3.901408 -14.439770 -0.874300 -7.125000 0.000000 0.000000 -16.212900 15.999500 11.595400 -0.761704 7.997620 1.126268 93.195290 -2.964255 7.731899 -20.969326 21.935937 -3.795755 1.449772 -3.216238 -8.028214 -7.601807 -39.335174 5.105000 7.125000 0.000000 0.000000 30.758500 -63.484700 -14.474200 
11.515937 18.673805 8.839273 1.513532 2.323324 -1.967819 9.356941 -1.350341 -1.013812 -27.321058 -9.765157 -9.020205 6.785723 12.894283 41.312819 -2.829442 -29.073189 -35.121940 0.005500 -0.479700 -1.318200 -16.431032 0.375377 -5.054005 41.650364 13.095435 6.641403 -7.065442 -10.794390 31.040545 -6.774884 -2.507399 -56.818757 -0.372600 -3.920400 10.852800 5.330234 1.841272 -7.010523 -6.810769 1.205583 17.035342 -1.801852 0.824060 -0.759365 -9.089672 -7.907877 -7.778811 14.411783 -11.629395 7.986296 2.819200 -5.584400 2.867200 3.751725 -8.585475 1.556817 -86.145150 -3.413895 26.700982 22.462695 -25.894671 -2.877144 0.408601 -0.177953 -6.822955 3.939758 -15.277688 -0.924700 -7.125000 0.000000 0.000000 -16.148500 15.274700 11.809400 -0.626752 8.055704 1.204920 93.365200 -3.227275 8.101629 -21.000491 22.042421 -3.831437 1.401605 -3.240863 -6.618653 -7.264576 -39.465516 4.941400 7.125000 0.000000 0.000000 31.238100 -63.523100 -14.750400 
11.522112 18.669718 8.853167 1.777497 2.465511 -2.057362 9.270885 -1.397286 -1.034305 -27.596769 -9.748887 -8.808789 6.769755 12.897151 41.239731 -2.746213 -28.839540 -35.207069 0.010300 -0.655100 -1.800100 -16.463993 0.377104 -5.222662 41.399958 12.743552 6.929298 -7.062101 -10.760671 30.989812 -6.774305 -2.324102 -56.871692 -0.386800 -3.993700 11.058800 5.285118 1.846202 -6.739626 -7.553193 1.216233 16.622025 -1.459569 0.798331 -0.872146 -8.777782 -7.855919 -7.887778 13.931447 -11.552812 8.386391 2.721900 -5.527800 2.896600 3.779469 -8.569904 1.610595 -86.048883 -3.304948 26.962424 22.509218 -25.920560 -2.903076 0.457675 -0.178850 -7.274349 4.323165 -15.539412 -1.029100 -7.125000 0.000000 0.000000 -15.911300 15.016100 11.713300 -0.519333 8.095214 1.270551 93.445967 -3.526549 8.282045 -21.162663 22.236623 -3.896286 1.344880 -3.263907 -4.949365 -6.858104 -39.633903 4.745100 7.125000 0.000000 0.000000 31.836500 -63.582400 -15.106100 
11.524473 18.667085 8.868877 1.499921 2.573277 -2.114801 9.321046 -1.412131 -1.042265 -27.429091 -9.902878 -8.613562 6.783521 12.891335 41.231481 -2.821474 -28.844783 -34.986271 0.000100 -0.068100 -0.187200 -16.393180 0.405216 -5.191276 41.659905 12.744348 7.046206 -7.031589 -10.761079 30.974572 -6.827393 -2.376772 -57.056071 -0.395800 -4.039400 11.187600 5.217334 1.797173 -6.962470 -7.001678 1.144849 16.784475 -1.659274 0.792988 -0.788269 -9.016315 -7.799642 -8.044913 14.079893 -11.479463 8.390848 2.760500 -5.488000 2.930800 3.718216 -8.572191 1.594488 -86.046400 -3.454020 27.104448 22.568364 -26.037226 -2.941138 0.498345 -0.176565 -7.447467 4.731692 -15.737828 -1.140900 -7.125000 0.000000 0.000000 -15.657500 14.810300 11.583000 -0.542413 8.076788 1.257026 93.587011 -3.573061 8.169396 -21.276358 22.389778 -3.948743 1.268073 -3.292623 -2.830293 -6.395554 -39.828467 4.520500 7.125000 0.000000 0.000000 32.525100 -63.652800 -15.521100 
11.527923 18.662817 8.882861 1.489950 2.706586 -2.229115 9.285247 -1.447044 -1.042218 -27.453376 -9.956212 -8.420484 6.795884 12.900435 41.254869 -2.869291 -28.852574 -34.807701 0.002300 0.310800 0.853900 -16.380181 0.427244 -5.270368 41.700744 12.541640 7.346202 -7.006155 -10.719891 30.848846 -6.861928 -2.375346 -57.159204 -0.405800 -4.089800 11.329400 5.225609 1.793412 -6.964333 -7.198396 1.140268 16.778459 -1.588587 0.779772 -0.776425 -8.883494 -7.768497 -8.111201 13.896374 -11.413582 8.337911 2.724700 -5.460100 2.922600 3.727401 -8.560349 1.599600 -86.019131 -3.529727 27.202429 22.624001 -26.124154 -2.970615 0.529061 -0.182522 -7.574029 5.008111 -15.964409 -1.223800 -7.125000 0.000000 0.000000 -15.483000 14.588900 11.519800 -0.526897 8.080424 1.258359 93.729628 -3.654307 8.237344 -21.278724 22.423792 -3.973326 1.211628 -3.318745 -1.088161 -5.928841 -40.047965 4.292200 7.125000 0.000000 0.000000 33.244100 -63.735300 -15.966300 
11.531374 18.658458 8.897300 1.361174 2.820012 -2.364233 9.263639 -1.472248 -1.034400 -27.359097 -9.992413 -8.252904 6.818644 12.917286 41.335160 -2.932972 -28.895540 -34.612254 0.011800 0.700600 1.925300 -16.342334 0.448442 -5.338702 41.827734 12.295273 7.659153 -6.967337 -10.664244 30.653398 -6.891587 -2.397781 -57.210111 -0.410400 -4.112200 11.392500 5.275818 1.779146 -7.015406 -7.185059 1.119135 16.859980 -1.629727 0.765881 -0.727455 -8.799006 -7.722343 -8.102892 13.809364 -11.321637 8.073463 2.711100 -5.430900 2.884700 3.721498 -8.555594 1.590154 -85.993093 -3.628565 27.302745 22.684654 -26.223037 -3.002575 0.558170 -0.182507 -7.710017 5.289556 -16.134593 -1.306200 -7.125000 0.000000 0.000000 -15.308100 14.415500 11.438300 -0.540169 8.075740 1.241111 93.875847 -3.683417 8.357357 -21.238701 22.407681 -3.986252 1.156877 -3.344975 0.637966 -5.438813 -40.281989 4.049400 7.125000 0.000000 0.000000 34.006600 -63.821700 -16.443200 
11.534007 18.653554 8.911102 1.110947 2.895622 -2.525493 9.256091 -1.491346 -1.034363 -27.138081 -9.980784 -8.084228 6.844828 12.933222 41.434766 -3.005163 -28.960590 -34.423989 0.026500 1.051000 2.889000 -16.284076 0.473349 -5.376888 42.067184 12.082028 7.958843 -6.918865 -10.612875 30.455812 -6.919981 -2.440023 -57.236976 -0.413800 -4.129300 11.440900 5.371816 1.757774 -7.080007 -6.990333 1.086630 17.005496 -1.761414 0.753506 -0.674086 -8.703912 -7.670681 -8.041805 13.723886 -11.213666 7.671325 2.698900 -5.402000 2.822500 3.696068 -8.551917 1.569280 -85.966401 -3.745226 27.388463 22.730255 -26.304373 -3.029848 0.587663 -0.184114 -7.827732 5.572623 -16.313279 -1.391000 -7.125000 0.000000 0.000000 -15.132500 14.234400 11.357600 -0.579955 8.066657 1.214377 94.023152 -3.681827 8.557652 -21.192779 22.384449 -3.997654 1.103821 -3.370173 2.326375 -4.930869 -40.522790 3.793400 7.125000 0.000000 0.000000 34.800400 -63.907300 -16.942500 
11.535914 18.648469 8.923634 0.767231 2.925695 -2.704460 9.257694 -1.504619 -1.040790 -26.811523 -9.925268 -7.931418 6.874177 12.952903 41.567637 -3.070800 -29.030424 -34.278359 0.041700 1.318400 3.625300 -16.211887 0.500895 -5.399573 42.391037 11.881267 8.255069 -6.860859 -10.556056 30.225422 -6.942087 -2.493197 -57.221209 -0.417300 -4.146300 11.488700 5.501541 1.734365 -7.127200 -6.658207 1.049169 17.165515 -1.955062 0.744986 -0.628662 -8.599094 -7.620217 -7.929506 13.623872 -11.103428 7.195857 2.684800 -5.376800 2.743500 3.651087 -8.549763 1.541411 -85.940283 -3.872113 27.469776 22.751611 -26.353916 -3.049805 0.619900 -0.188411 -7.944543 5.872925 -16.515985 -1.483400 -7.125000 0.000000 0.000000 -14.946700 14.031500 11.274700 -0.633989 8.055633 1.187074 94.165018 -3.676871 8.806272 -21.194565 22.414352 -4.021460 1.051437 -3.392412 3.968084 -4.421091 -40.753344 3.531400 7.125000 0.000000 0.000000 35.591100 -63.983200 -17.438500 
